<?xml version="1.0" encoding="iso-8859-1"?>
<!-- Generator: Adobe Illustrator 19.0.0, SVG Export Plug-In . SVG Version: 6.00 Build 0)  -->
<svg version="1.1" id="Capa_1" xmlns="http://www.w3.org/2000/svg" xmlns:xlink="http://www.w3.org/1999/xlink" x="0px" y="0px"
	 viewBox="0 0 426.667 426.667" style="enable-background:new 0 0 426.667 426.667;" xml:space="preserve">
<g>
	<g>
		<g>
			<path d="M384,42.667h-21.333V0H320v42.667H106.667V0H64v42.667H42.667C19.2,42.667,0,61.867,0,85.333h426.667
				C426.667,61.867,407.467,42.667,384,42.667z"/>
			<path d="M0,384c0,23.467,19.2,42.667,42.667,42.667H384c23.467,0,42.667-19.2,42.667-42.667V128H0V384z M320,170.667h42.667
				v42.667H320V170.667z M320,256h42.667v42.667H320V256z M234.667,170.667h42.667v42.667h-42.667V170.667z M234.667,256h42.667
				v42.667h-42.667V256z M234.667,341.333h42.667V384h-42.667V341.333z M149.333,170.667H192v42.667h-42.667V170.667z M149.333,256
				H192v42.667h-42.667V256z M149.333,341.333H192V384h-42.667V341.333z M64,256h42.667v42.667H64V256z M64,341.333h42.667V384H64
				V341.333z"/>
		</g>
	</g>
</g>
<g>
</g>
<g>
</g>
<g>
</g>
<g>
</g>
<g>
</g>
<g>
</g>
<g>
</g>
<g>
</g>
<g>
</g>
<g>
</g>
<g>
</g>
<g>
</g>
<g>
</g>
<g>
</g>
<g>
</g>
</svg>
