<svg id="Layer_1" enable-background="new 0 0 512 512" height="512" viewBox="0 0 512 512" width="512" xmlns="http://www.w3.org/2000/svg"><g clip-rule="evenodd" fill-rule="evenodd"><g><path d="m485.841 296.757c-48.444 0-72.75 58.689-38.497 92.943 6.31 6.309 6.31 16.544 0 22.854l-34.79 34.79c-6.31 6.31-16.544 6.31-22.854 0-34.253-34.253-92.942-9.948-92.942 38.497 0 8.927-7.237 16.159-16.159 16.159h-49.197c-8.923 0-16.16-7.232-16.16-16.159 0-48.504-58.646-72.794-92.942-38.497-6.31 6.31-16.544 6.31-22.854 0l-34.79-34.79c-6.31-6.31-6.31-16.545 0-22.854 34.253-34.253 9.947-92.943-38.497-92.943-8.928 0-16.159-7.237-16.159-16.159v-49.197c0-8.922 7.231-16.159 16.159-16.159 48.444 0 72.75-58.689 38.497-92.943-6.31-6.309-6.31-16.544 0-22.853l34.79-34.79c6.31-6.309 16.544-6.309 22.854 0 34.253 34.253 92.942 9.947 92.942-38.497 0-8.928 7.237-16.159 16.16-16.159h49.197c8.922 0 16.159 7.231 16.159 16.159 0 48.444 58.689 72.751 92.942 38.497 6.31-6.309 16.544-6.309 22.854 0l34.79 34.79c6.31 6.309 6.31 16.544 0 22.853-34.253 34.253-9.947 92.943 38.497 92.943 8.928 0 16.159 7.237 16.159 16.159v49.197c0 8.923-7.231 16.159-16.159 16.159zm-109.238-40.757c0-66.61-53.998-120.602-120.603-120.602-66.611 0-120.602 53.992-120.602 120.602 0 66.605 53.992 120.602 120.602 120.602 66.605.001 120.603-53.997 120.603-120.602z" fill="#ffd54f"/><path d="m401.385 256c0 80.292-65.094 145.385-145.386 145.385-80.298 0-145.385-65.093-145.385-145.385 0-80.298 65.087-145.385 145.385-145.385 80.293 0 145.386 65.087 145.386 145.385zm-24.782 0c0-66.61-53.998-120.602-120.603-120.602-66.611 0-120.602 53.992-120.602 120.602 0 66.605 53.992 120.602 120.602 120.602 66.605.001 120.603-53.997 120.603-120.602z" fill="#ffc107"/></g><path d="m211.946 294.672c3.905 3.905 3.905 10.236 0 14.141s-10.236 3.905-14.141 0l-45.742-45.742c-3.905-3.905-3.905-10.236 0-14.141l45.742-45.742c3.905-3.905 10.236-3.905 14.141 0s3.905 10.236 0 14.141l-38.671 38.671zm102.249 14.141c-3.905 3.905-10.236 3.905-14.141 0s-3.905-10.236 0-14.141l38.671-38.672-38.671-38.671c-3.905-3.905-3.905-10.236 0-14.141s10.236-3.905 14.141 0l45.742 45.742c3.905 3.905 3.905 10.236 0 14.141zm-52.312-103.086c1.726-5.242 7.375-8.093 12.617-6.367s8.093 7.375 6.367 12.617l-31.214 94.297c-1.726 5.242-7.375 8.093-12.617 6.367s-8.093-7.375-6.368-12.617z" fill="#515151"/></g></svg>