<svg id="Layer_1" enable-background="new 0 0 512 512" height="512" viewBox="0 0 512 512" width="512" xmlns="http://www.w3.org/2000/svg"><g><g><g><g clip-rule="evenodd" fill-rule="evenodd"><path d="m283.753 464.098h-137.253c10.954-15.501 20.037-55.441 16.103-86.254h104.08c-3.933 30.813 6.12 70.753 17.07 86.254z" fill="#cad0d7"/><path d="m122.04 458.768h186.173c9.572 0 17.403 7.831 17.403 17.403 0 9.572-7.831 17.403-17.403 17.403h-186.173c-9.572 0-17.403-7.832-17.403-17.403 0-9.571 7.832-17.403 17.403-17.403z" fill="#e4e8eb"/><path d="m393.247 103.374c11.597 0 21.001 9.405 21.001 21.006v236.19c0 15.79-12.799 28.59-28.59 28.59h-341.067c-15.791 0-28.59-12.8-28.59-28.59v-228.605c0-15.791 12.799-28.59 28.59-28.59h348.656z" fill="#cad0d7"/><path d="m32.594 315.698h365.061c0-63.772 0-127.544 0-191.317 0-2.439-1.967-4.413-4.408-4.413h-348.656c-6.632 0-11.997 5.365-11.997 11.997z" fill="#636c77"/><path d="m414.248 332.291v28.28c0 15.79-12.799 28.59-28.59 28.59h-341.067c-15.791 0-28.591-12.8-28.591-28.59v-28.28z" fill="#e4e8eb"/></g></g><path clip-rule="evenodd" d="m199.406 367.726c-3.866 0-7-3.134-7-7s3.134-7 7-7h31.436c3.866 0 7 3.134 7 7s-3.134 7-7 7z" fill="#cad0d7" fill-rule="evenodd"/></g><g clip-rule="evenodd" fill-rule="evenodd"><path d="m270.932 260.731c-2.733 2.733-7.165 2.733-9.899 0-2.733-2.733-2.733-7.165 0-9.899l33.001-33.001-33.001-33c-2.733-2.733-2.733-7.165 0-9.899 2.733-2.733 7.165-2.733 9.899 0l37.95 37.95c2.733 2.733 2.733 7.165 0 9.899zm-65.106 29.335c-.997 3.73-4.829 5.946-8.559 4.949s-5.946-4.829-4.949-8.559l37.743-140.859c.997-3.73 4.829-5.946 8.559-4.949s5.946 4.829 4.949 8.559zm-36.611-39.234c2.733 2.733 2.733 7.165 0 9.899-2.733 2.733-7.165 2.733-9.899 0l-37.95-37.95c-2.733-2.733-2.733-7.165 0-9.899l37.95-37.95c2.733-2.733 7.165-2.733 9.899 0 2.733 2.733 2.733 7.166 0 9.899l-33.001 33.001z" fill="#f4f6f8"/><path d="m490.63 113.721c-16.099 0-24.176 19.504-12.793 30.886 2.097 2.097 2.097 5.498 0 7.595l-11.561 11.561c-2.097 2.097-5.498 2.097-7.595 0-11.383-11.383-30.886-3.306-30.886 12.793 0 2.967-2.405 5.37-5.37 5.37h-16.349c-2.965 0-5.37-2.403-5.37-5.37 0-16.119-19.489-24.191-30.887-12.793-2.097 2.097-5.498 2.097-7.595 0l-11.561-11.561c-2.097-2.097-2.097-5.498 0-7.595 11.383-11.383 3.306-30.886-12.794-30.886-2.967 0-5.37-2.405-5.37-5.37v-16.35c0-2.965 2.403-5.37 5.37-5.37 16.099 0 24.176-19.504 12.794-30.887-2.097-2.097-2.097-5.498 0-7.595l11.561-11.561c2.097-2.097 5.498-2.097 7.595 0 11.383 11.383 30.887 3.306 30.887-12.794 0-2.967 2.405-5.37 5.37-5.37h16.349c2.965 0 5.37 2.403 5.37 5.37 0 16.099 19.503 24.176 30.886 12.794 2.097-2.097 5.498-2.097 7.595 0l11.561 11.561c2.097 2.097 2.097 5.498 0 7.595-11.383 11.383-3.306 30.887 12.793 30.887 2.967 0 5.37 2.405 5.37 5.37v16.349c0 2.965-2.403 5.371-5.37 5.371zm-76.381-53.495c-22.064 0-39.95 17.886-39.95 39.95s17.886 39.95 39.95 39.95 39.95-17.886 39.95-39.95-17.886-39.95-39.95-39.95z" fill="#fdcd56"/></g></g></svg>