<svg id="Layer_1" enable-background="new 0 0 48 48" height="512" viewBox="0 0 48 48" width="512" xmlns="http://www.w3.org/2000/svg"><g><path d="m13.668 12.836h20.664c.541 0 .979-.438.979-.979s-.438-.979-.979-.979h-20.664c-.541 0-.979.438-.979.979s.438.979.979.979z"/><path d="m13.668 18.651h20.664c.541 0 .979-.438.979-.979s-.438-.979-.979-.979h-20.664c-.541 0-.979.438-.979.979s.438.979.979.979z"/><path d="m13.668 24.468h20.664c.541 0 .979-.438.979-.979 0-.542-.438-.979-.979-.979h-20.664c-.541 0-.979.438-.979.979 0 .54.438.979.979.979z"/><path d="m47.894 21.677-11.73 10.439 11.514 12.891c.201-.517.322-1.072.322-1.659v-20.689c0-.335-.037-.664-.106-.982z"/><path d="m13.481 33.233-12.027 13.467c.842.801 1.979 1.3 3.235 1.3h38.623c1.26 0 2.401-.502 3.244-1.308l-12.021-13.459z"/><path d="m.089 21.833c-.051.271-.089.546-.089.826v20.688c0 .592.123 1.153.327 1.673l11.433-12.8z"/><path d="m13.415 31.07c.066.06.106.133.153.204h20.67c.047-.071.087-.145.153-.204l4.573-4.071h-30.123z"/><path d="m6.587 24.994 1.429 1.271c.312-.164.53-.48.53-.857v-19.077h30.907v19.796c0 .143.034.276.089.398l1.87-1.675v-.029l5.602-4.985c-.175-.224-.362-.439-.577-.631l-4.958-4.313c-.007-.006-.037-.012-.066-.018v-9.522c0-.542-.438-.979-.979-.979h-11.043l-4.746-4.131c-.369-.321-.917-.321-1.285 0l-4.741 4.126c-.001.002-.002.004-.004.005h-11.048c-.541 0-.979.438-.979.979v9.618c-.104.012-.181.023-.196.037l-4.866 4.234c-.003.004-.004.007-.007.009-.228.209-.43.441-.612.688z"/></g></svg>