<svg id="Layer_1" enable-background="new 0 0 48 48" height="512" viewBox="0 0 48 48" width="512" xmlns="http://www.w3.org/2000/svg"><g><path d="m47.891 35.687c.067-.293.109-.595.109-.908v-21.56c0-.642-.162-1.241-.428-1.782l-11.323 9.955z"/><path d="m24 29.47 22.268-19.576c-.666-.471-1.471-.752-2.346-.752h-39.842c-.875 0-1.681.281-2.346.752z"/><path d="m34.729 22.728-10.062 8.847c-.19.168-.429.251-.667.251s-.477-.083-.667-.251l-10.061-8.845-12.12 14.88c.742.768 1.778 1.249 2.928 1.249h39.842c1.149 0 2.186-.482 2.927-1.25z"/><path d="m.429 11.436c-.266.542-.429 1.14-.429 1.783v21.561c0 .313.043.616.11.909l11.643-14.296z"/></g></svg>