<?xml version="1.0" encoding="iso-8859-1"?>
<!-- Generator: Adobe Illustrator 19.0.0, SVG Export Plug-In . SVG Version: 6.00 Build 0)  -->
<svg version="1.1" id="Capa_1" xmlns="http://www.w3.org/2000/svg" xmlns:xlink="http://www.w3.org/1999/xlink" x="0px" y="0px"
	 viewBox="0 0 426.667 426.667" style="enable-background:new 0 0 426.667 426.667;" xml:space="preserve">
<g>
	<g>
		<path d="M213.333,0C96,0,0,96,0,213.333s96,213.333,213.333,213.333s213.333-96,213.333-213.333S330.667,0,213.333,0z M49.067,256
			c-4.267-12.8-6.4-27.733-6.4-42.667s2.133-29.867,6.4-42.667H96c-2.133,12.8-2.133,27.733-2.133,42.667S93.867,243.2,96,256
			H49.067z M66.133,298.667h38.4c6.4,23.467,12.8,42.667,21.333,59.733C100.267,343.467,81.067,324.267,66.133,298.667z M102.4,128
			H66.133c14.933-25.6,34.133-44.8,59.733-59.733C115.2,85.333,108.8,104.533,102.4,128z M192,375.467
			c-17.067-12.8-34.133-40.533-44.8-76.8H192V375.467z M192,256h-53.333c-2.133-12.8-2.133-27.733-2.133-42.667
			s0-29.867,2.133-42.667H192V256z M192,128h-44.8c10.667-38.4,27.733-66.133,44.8-76.8V128z M360.533,128h-38.4
			c-6.4-23.467-12.8-42.667-21.333-59.733C326.4,83.2,345.6,102.4,360.533,128z M234.667,51.2c17.067,12.8,34.133,40.533,44.8,76.8
			h-44.8V51.2z M234.667,375.467v-76.8h44.8C268.8,337.067,251.733,364.8,234.667,375.467z M288,256h-53.333v-85.333H288
			c2.133,12.8,2.133,27.733,2.133,42.667S290.133,243.2,288,256z M300.8,358.4c8.533-17.067,17.067-38.4,21.333-59.733h38.4
			C345.6,324.267,326.4,343.467,300.8,358.4z M330.667,256c2.133-12.8,2.133-27.733,2.133-42.667s0-29.867-2.133-42.667H377.6
			c4.267,12.8,6.4,27.733,6.4,42.667S381.867,243.2,377.6,256H330.667z"/>
	</g>
</g>
<g>
</g>
<g>
</g>
<g>
</g>
<g>
</g>
<g>
</g>
<g>
</g>
<g>
</g>
<g>
</g>
<g>
</g>
<g>
</g>
<g>
</g>
<g>
</g>
<g>
</g>
<g>
</g>
<g>
</g>
</svg>
