<svg id="printer" viewBox="0 0 64 64" xmlns="http://www.w3.org/2000/svg"><path d="m56.97 19.78h-2.67v-9.32c0-.56-.45-1-1-1h-4.87v-4.8c0-.56-.45-1-1-1h-30.86c-.55 0-1 .44-1 1v4.8h-4.86c-.55 0-1 .44-1 1v9.32h-2.68c-2.77 0-5.03 2.26-5.03 5.03v15.96c0 2.77 2.26 5.03 5.03 5.03h7.63l-1.53 13.43c-.03.28.06.57.25.78s.46.33.74.33h35.76c.29 0 .56-.12.75-.33s.28-.5.24-.78l-1.53-13.43h7.63c2.77 0 5.03-2.26 5.03-5.03v-15.96c0-2.77-2.26-5.03-5.03-5.03zm-37.32 7.01c0 .55-.45 1-1 1h-2.47c-.55 0-1-.45-1-1s.45-1 1-1h2.47c.55 0 1 .44 1 1zm-10.75-1h2.47c.55 0 1 .44 1 1s-.45 1-1 1h-2.47c-.55 0-1-.45-1-1s.45-1 1-1zm8.67-20.13h28.86v14.12h-28.86zm-2.33 52.68 2.13-18.68h29.27l2.12 18.68zm33.88-14.54-.6-5.26c-.05-.5-.48-.88-.99-.88h-31.05c-.51 0-.94.38-1 .88l-.6 5.26h-2.1v-10.01h38.44v10.01z"/><path d="m23.05 44.38h17.91c.55 0 1-.45 1-1s-.45-1-1-1h-17.91c-.55 0-1 .45-1 1s.45 1 1 1z"/><path d="m22.01 50h19.98c.55 0 1-.45 1-1s-.45-1-1-1h-19.98c-.55 0-1 .45-1 1s.45 1 1 1z"/><path d="m43.01 53.62h-22.02c-.55 0-1 .45-1 1s.45 1 1 1h22.02c.55 0 1-.45 1-1s-.45-1-1-1z"/></svg>