<svg id="Layer_1" enable-background="new 0 0 512 512" height="512" viewBox="0 0 512 512" width="512" xmlns="http://www.w3.org/2000/svg"><g clip-rule="evenodd" fill-rule="evenodd"><g><path d="m259.485 76.89-158.145 91.305v182.611l158.145 91.304 158.145-91.304v-182.611z" fill="#c89f81"/><path d="m417.63 168.195v182.611l-158.145 91.304v-182.61z" fill="#d5a889"/><path d="m259.485 76.89-158.145 91.305 158.145 91.305 158.145-91.305z" fill="#dcb190"/><path d="m202.409 109.843-43.993 25.399 158.145 91.305v76.087l43.993-25.399v-76.087z" fill="#efc7a4"/><path d="m360.554 277.235-43.993 25.399v-76.087l43.993-25.399z" fill="#e6bd9b"/></g><path d="m493.738 426.497c-17.231 0-25.877 20.875-13.693 33.059 2.244 2.244 2.244 5.885 0 8.129l-12.374 12.374c-2.244 2.245-5.885 2.245-8.129 0-12.184-12.183-33.059-3.538-33.059 13.693 0 3.176-2.574 5.748-5.747 5.748h-17.499c-3.174 0-5.748-2.572-5.748-5.748 0-17.252-20.86-25.892-33.059-13.693-2.244 2.245-5.885 2.245-8.129 0l-12.374-12.374c-2.244-2.244-2.244-5.885 0-8.129 12.184-12.184 3.538-33.059-13.693-33.059-3.176 0-5.748-2.574-5.748-5.748v-17.499c0-3.174 2.572-5.748 5.748-5.748 17.231 0 25.877-20.875 13.693-33.059-2.244-2.244-2.244-5.884 0-8.129l12.374-12.374c2.244-2.244 5.885-2.244 8.129 0 12.184 12.184 33.059 3.538 33.059-13.693 0-3.176 2.574-5.748 5.748-5.748h17.499c3.174 0 5.747 2.572 5.747 5.748 0 17.231 20.875 25.877 33.059 13.693 2.244-2.244 5.884-2.244 8.129 0l12.374 12.374c2.244 2.245 2.244 5.885 0 8.129-12.184 12.184-3.538 33.059 13.693 33.059 3.176 0 5.748 2.574 5.748 5.748v17.499c-.001 3.174-2.572 5.748-5.748 5.748zm-81.753-56.539c-23.219 0-42.042 18.823-42.042 42.041 0 23.22 18.822 42.042 42.042 42.042 23.219 0 42.042-18.822 42.042-42.042 0-23.218-18.823-42.041-42.042-42.041z" fill="#636c77"/><g><path d="m104.078 33.123c0 3.866-3.134 7-7 7s-7-3.134-7-7v-13.623c0-3.866 3.134-7 7-7s7 3.134 7 7zm62.266 44.029c-3.337 1.918-7.598.767-9.516-2.57s-.767-7.598 2.57-9.516l11.797-6.811c3.337-1.918 7.598-.767 9.516 2.57s.767 7.598-2.57 9.516zm-25.237-30.378c-1.918 3.337-6.178 4.488-9.516 2.57-3.337-1.918-4.488-6.178-2.57-9.516l6.811-11.797c1.918-3.337 6.178-4.488 9.516-2.57 3.337 1.918 4.488 6.178 2.57 9.516zm-106.352 18.292c3.337 1.918 4.488 6.178 2.57 9.516-1.918 3.337-6.178 4.488-9.516 2.57l-11.797-6.811c-3.337-1.918-4.488-6.178-2.57-9.516 1.918-3.337 6.178-4.488 9.516-2.57zm30.379-25.238c1.918 3.337.767 7.598-2.57 9.516s-7.598.767-9.516-2.57l-6.811-11.797c-1.918-3.337-.767-7.598 2.57-9.516s7.598-.767 9.516 2.57z" fill="#fdcd56"/><path d="m97.077 58.04c23.401 0 42.371 18.97 42.371 42.371 0 27.55-19.819 21.102-19.819 71.074h-45.104c0-49.971-19.818-43.524-19.818-71.074 0-23.401 18.97-42.371 42.37-42.371z" fill="#fdcd56"/><path d="m90.077 169.735v-57.433l-14.642-8.454c-3.337-1.918-4.488-6.178-2.57-9.516 1.918-3.337 6.178-4.488 9.516-2.57l14.683 8.477 14.683-8.477c3.337-1.933 7.61-.794 9.543 2.543s.794 7.61-2.543 9.543l-14.669 8.469v57.417h-14.001z" fill="#f5b945"/><path d="m73.665 159.611h46.825c3.853 0 7.005 3.152 7.005 7.004v15.118c0 3.853-3.152 7.004-7.005 7.004h-7.2v7.023c0 3.634-2.973 6.608-6.608 6.608h-19.209c-3.635 0-6.608-2.973-6.608-6.608v-7.023h-7.2c-3.853 0-7.005-3.152-7.005-7.004v-15.118c0-3.852 3.152-7.004 7.005-7.004z" fill="#e4e8eb"/></g></g></svg>