<svg id="Layer_1" enable-background="new 0 0 64 64" height="512" viewBox="0 0 64 64" width="512" xmlns="http://www.w3.org/2000/svg"><g><path d="m62.072 50.198-9.625-9.626c-2.412-2.412-6.242-2.455-8.592-.177-2.957 2.869-4.418 5.777-4.871 8.509-6.14 1.457-13.179-.443-18.312-5.576s-7.034-12.173-5.575-18.313c2.729-.453 5.639-1.913 8.508-4.871 2.277-2.349 2.234-6.18-.178-8.592l-9.625-9.626c-2.411-2.41-6.458-2.658-8.591-.176-3.729 4.342-5.09 8.088-5.037 11.265-1.26 10.368 4.387 24.044 15.579 35.233 11.191 11.192 24.865 16.84 35.234 15.578 3.176.053 6.922-1.308 11.264-5.036 2.481-2.134 2.233-6.181-.179-8.592z"/></g></svg>