<svg xmlns="http://www.w3.org/2000/svg" width="256" height="256" viewBox="0 0 100 100"><rect width="100" height="100" rx="16" fill="#2e436f"></rect><path d="M33.99 66.09L33.99 66.09Q36.04 66.09 37.64 65.61Q39.24 65.13 40.50 64.37Q41.76 63.60 42.70 62.65Q43.64 61.69 44.35 60.76L44.35 60.76Q44.79 61.09 45.05 61.77Q45.31 62.46 45.31 63.17L45.31 63.17Q45.31 64.34 44.68 65.64Q44.05 66.94 42.58 68.03Q41.10 69.13 38.67 69.84Q36.23 70.55 32.65 70.55L32.65 70.55Q27.78 70.55 24.15 69.07Q20.51 67.60 18.10 64.89Q15.70 62.18 14.49 58.38Q13.29 54.58 13.29 49.96L13.29 49.96Q13.29 45.42 14.52 41.65Q15.75 37.87 18.17 35.17Q20.59 32.46 24.21 30.96Q27.84 29.45 32.60 29.45L32.60 29.45Q35.82 29.45 38.21 29.96Q40.61 30.46 42.19 31.34Q43.78 32.21 44.57 33.40Q45.37 34.59 45.37 35.96L45.37 35.96Q45.37 37.00 44.91 37.89Q44.46 38.78 43.57 39.43Q42.69 40.09 41.37 40.46Q40.06 40.83 38.37 40.83L38.37 40.83Q38.37 39.43 38.06 38.05Q37.76 36.67 37.04 35.55Q36.31 34.43 35.14 33.73Q33.96 33.03 32.21 33.03L32.21 33.03Q29.56 33.03 27.73 34.15Q25.90 35.28 24.79 37.44Q23.68 39.60 23.19 42.75Q22.70 45.91 22.70 49.96L22.70 49.96Q22.70 54.01 23.30 57.04Q23.90 60.08 25.24 62.09Q26.58 64.10 28.73 65.09Q30.87 66.09 33.99 66.09ZM86.71 30.03L86.71 32.98L84.00 32.98Q83.62 32.98 83.32 33.14Q83.02 33.31 82.72 33.76Q82.42 34.21 82.09 35.00Q81.76 35.79 81.32 37.08L81.32 37.08L69.89 70.00L64.29 70.00L52.37 35.69Q52.09 34.89 51.67 34.36Q51.24 33.83 50.77 33.53Q50.29 33.22 49.79 33.10Q49.30 32.98 48.89 32.98L48.89 32.98L47.61 32.98L47.61 30.03L66.09 30.03L66.09 32.98L63.52 32.98Q63.11 32.98 62.73 33.07Q62.35 33.17 62.03 33.39Q61.72 33.61 61.53 33.96Q61.33 34.32 61.33 34.84L61.33 34.84Q61.33 35.38 61.50 36.08Q61.66 36.78 61.83 37.24L61.83 37.24L67.54 54.50Q67.76 55.13 67.99 55.97Q68.22 56.82 68.44 57.75Q68.66 58.68 68.84 59.60Q69.02 60.51 69.10 61.28L69.10 61.28Q69.18 60.81 69.39 60.01Q69.59 59.20 69.87 58.26Q70.14 57.31 70.43 56.37Q70.71 55.43 70.96 54.66L70.96 54.66L76.73 37.63Q76.84 37.33 76.96 36.96Q77.08 36.59 77.18 36.21Q77.28 35.82 77.34 35.47Q77.41 35.11 77.41 34.89L77.41 34.89Q77.41 33.96 76.80 33.47Q76.18 32.98 75.17 32.98L75.17 32.98L72.24 32.98L72.24 30.03L86.71 30.03Z" fill="#f6f8fe"></path></svg>